{
  "accessors": [
    {
      "bufferView": 2,
      "componentType": 5126,
      "count": 3776,
      "max": [
        0.8546974658966064,
        4.271664142608643,
        0.948310375213623
      ],
      "min": [
        -1.0981075763702393,
        -2.2031116485595703,
        -1.2089898586273193
      ],
      "type": "VEC3"
    },
    {
      "bufferView": 2,
      "byteOffset": 45312,
      "componentType": 5126,
      "count": 3776,
      "max": [
        0.9979895949363708,
        1.0,
        0.9989343285560608
      ],
      "min": [
        -0.9999715089797974,
        -0.9998654127120972,
        -0.9999232292175293
      ],
      "type": "VEC3"
    },
    {
      "bufferView": 1,
      "componentType": 5126,
      "count": 3776,
      "max": [
        0.9992318153381348,
        1.0
      ],
      "min": [
        0.0,
        0.0
      ],
      "type": "VEC2"
    },
    {
      "bufferView": 1,
      "byteOffset": 30208,
      "componentType": 5126,
      "count": 3776,
      "max": [
        0.9992318153381348,
        1.0
      ],
      "min": [
        0.0,
        0.0
      ],
      "type": "VEC2"
    },
    {
      "bufferView": 1,
      "byteOffset": 60416,
      "componentType": 5126,
      "count": 3776,
      "max": [
        0.9992318153381348,
        1.0
      ],
      "min": [
        0.0,
        0.0
      ],
      "type": "VEC2"
    },
    {
      "bufferView": 1,
      "byteOffset": 90624,
      "componentType": 5126,
      "count": 3776,
      "max": [
        0.9992318153381348,
        1.0
      ],
      "min": [
        0.0,
        0.0
      ],
      "type": "VEC2"
    },
    {
      "bufferView": 2,
      "byteOffset": 90624,
      "componentType": 5126,
      "count": 3776,
      "max": [
        0.8162528872489929,
        1.2072913646697998,
        0.9542543888092041
      ],
      "min": [
        -1.1261321306228638,
        -0.9327926635742188,
        -0.8956979513168335
      ],
      "type": "VEC3"
    },
    {
      "bufferView": 2,
      "byteOffset": 135936,
      "componentType": 5126,
      "count": 3776,
      "max": [
        1.1593257188796997,
        1.9977242946624756,
        0.9991737604141235
      ],
      "min": [
        -0.9949102401733398,
        -0.2323991060256958,
        -0.9942280054092407
      ],
      "type": "VEC3"
    },
    {
      "bufferView": 2,
      "byteOffset": 181248,
      "componentType": 5126,
      "count": 3776,
      "max": [
        0.8162133097648621,
        1.2046611309051514,
        0.8988877534866333
      ],
      "min": [
        -1.1013644933700562,
        -0.932774543762207,
        -0.892520546913147
      ],
      "type": "VEC3"
    },
    {
      "bufferView": 2,
      "byteOffset": 226560,
      "componentType": 5126,
      "count": 3776,
      "max": [
        1.159064531326294,
        1.9977242946624756,
        0.9991737604141235
      ],
      "min": [
        -0.9949102401733398,
        -1.958322525024414,
        -0.9813300371170044
      ],
      "type": "VEC3"
    },
    {
      "bufferView": 2,
      "byteOffset": 271872,
      "componentType": 5126,
      "count": 3776,
      "max": [
        0.8162160515785217,
        1.2048389911651611,
        0.9086936116218567
      ],
      "min": [
        -1.1010968685150146,
        -0.9327754974365234,
        -0.8927353620529175
      ],
      "type": "VEC3"
    },
    {
      "bufferView": 2,
      "byteOffset": 317184,
      "componentType": 5126,
      "count": 3776,
      "max": [
        1.1593029499053955,
        1.992720127105713,
        0.9991737604141235
      ],
      "min": [
        -0.9949102401733398,
        -0.2320369929075241,
        -0.9813300371170044
      ],
      "type": "VEC3"
    },
    {
      "bufferView": 2,
      "byteOffset": 362496,
      "componentType": 5126,
      "count": 3776,
      "max": [
        0.816215455532074,
        1.204797625541687,
        0.9025483131408691
      ],
      "min": [
        -1.100175142288208,
        -0.9327754974365234,
        -0.8426028490066528
      ],
      "type": "VEC3"
    },
    {
      "bufferView": 2,
      "byteOffset": 407808,
      "componentType": 5126,
      "count": 3776,
      "max": [
        1.1588890552520752,
        1.9918984174728394,
        0.9991737604141235
      ],
      "min": [
        -0.9635305404663086,
        -0.2323085367679596,
        -0.9813300371170044
      ],
      "type": "VEC3"
    },
    {
      "bufferView": 2,
      "byteOffset": 453120,
      "componentType": 5126,
      "count": 3776,
      "max": [
        0.2394554316997528,
        0.5957467555999756,
        0.37282025814056396
      ],
      "min": [
        -0.44178271293640137,
        -0.034542083740234375,
        -0.26221081614494324
      ],
      "type": "VEC3"
    },
    {
      "bufferView": 2,
      "byteOffset": 498432,
      "componentType": 5126,
      "count": 3776,
      "max": [
        1.1559388637542725,
        1.9918984174728394,
        0.9991737604141235
      ],
      "min": [
        -0.9561825394630432,
        -0.20901939272880554,
        -0.9813300371170044
      ],
      "type": "VEC3"
    },
    {
      "bufferView": 2,
      "byteOffset": 543744,
      "componentType": 5126,
      "count": 3776,
      "max": [
        0.6295969486236572,
        0.04922676086425781,
        0.37368395924568176
      ],
      "min": [
        -0.34125468134880066,
        -0.8490155935287476,
        -0.5313166379928589
      ],
      "type": "VEC3"
    },
    {
      "bufferView": 2,
      "byteOffset": 589056,
      "componentType": 5126,
      "count": 3776,
      "max": [
        0.9999715089797974,
        1.9998654127120972,
        0.9999232292175293
      ],
      "min": [
        -0.9956478476524353,
        -1.9803857803344727,
        -0.9989343285560608
      ],
      "type": "VEC3"
    },
    {
      "bufferView": 2,
      "byteOffset": 634368,
      "componentType": 5126,
      "count": 3776,
      "max": [
        1.1087548732757568,
        0.23014390468597412,
        0.4813844859600067
      ],
      "min": [
        -0.7594753503799438,
        -1.890224575996399,
        -0.6538140177726746
      ],
      "type": "VEC3"
    },
    {
      "bufferView": 2,
      "byteOffset": 679680,
      "componentType": 5126,
      "count": 3776,
      "max": [
        1.0612462759017944,
        1.9998654127120972,
        1.0005669593811035
      ],
      "min": [
        -0.9978459477424622,
        -1.998673439025879,
        -0.9989343285560608
      ],
      "type": "VEC3"
    },
    {
      "bufferView": 2,
      "byteOffset": 724992,
      "componentType": 5126,
      "count": 3776,
      "max": [
        1.1663559675216675,
        0.48747289180755615,
        0.46630534529685974
      ],
      "min": [
        -0.7687183022499084,
        -2.3547139167785645,
        -0.6754733920097351
      ],
      "type": "VEC3"
    },
    {
      "bufferView": 2,
      "byteOffset": 770304,
      "componentType": 5126,
      "count": 3776,
      "max": [
        1.021414875984192,
        1.9998654127120972,
        0.9999232292175293
      ],
      "min": [
        -1.484740138053894,
        -1.9942501783370972,
        -0.9989343285560608
      ],
      "type": "VEC3"
    },
    {
      "bufferView": 0,
      "componentType": 5125,
      "count": 12456,
      "type": "SCALAR"
    },
    {
      "bufferView": 3,
      "componentType": 5126,
      "count": 99,
      "max": [
        4.124476432800293
      ],
      "min": [
        0.0411430262029171
      ],
      "type": "SCALAR"
    },
    {
      "bufferView": 5,
      "componentType": 5126,
      "count": 99,
      "max": [
        0.0,
        0.9998664259910583,
        -0.0,
        1.0
      ],
      "min": [
        0.0,
        -0.9998814463615417,
        -0.0,
        0.015397533774375916
      ],
      "type": "VEC4"
    },
    {
      "bufferView": 3,
      "byteOffset": 396,
      "componentType": 5126,
      "count": 99,
      "max": [
        4.124476432800293
      ],
      "min": [
        0.0411430262029171
      ],
      "type": "SCALAR"
    },
    {
      "bufferView": 4,
      "componentType": 5126,
      "count": 99,
      "max": [
        0.0,
        1.5011552572250366,
        -0.0
      ],
      "min": [
        0.0,
        0.0,
        -0.0
      ],
      "type": "VEC3"
    },
    {
      "bufferView": 3,
      "byteOffset": 792,
      "componentType": 5126,
      "count": 88,
      "max": [
        4.124476432800293
      ],
      "min": [
        0.0411430262029171
      ],
      "type": "SCALAR"
    },
    {
      "bufferView": 3,
      "byteOffset": 1144,
      "componentType": 5126,
      "count": 704,
      "max": [
        1.0
      ],
      "min": [
        0.0
      ],
      "type": "SCALAR"
    }
  ],
  "animations": [
    {
      "channels": [
        {
          "sampler": 0,
          "target": {
            "node": 4,
            "path": "rotation"
          }
        },
        {
          "sampler": 1,
          "target": {
            "node": 4,
            "path": "translation"
          }
        },
        {
          "sampler": 2,
          "target": {
            "node": 5,
            "path": "weights"
          }
        }
      ],
      "name": "bubble",
      "samplers": [
        {
          "input": 23,
          "interpolation": "LINEAR",
          "output": 24
        },
        {
          "input": 25,
          "interpolation": "LINEAR",
          "output": 26
        },
        {
          "input": 27,
          "interpolation": "LINEAR",
          "output": 28
        }
      ]
    }
  ],
  "asset": {
    "extras": {
      "author": "FranzAlvior (https://sketchfab.com/FranzAlvior)",
      "license": "CC-BY-4.0 (http://creativecommons.org/licenses/by/4.0/)",
      "source": "https://sketchfab.com/3d-models/bubble-gold-bcbf07f437c04554a96a6dca19b6f2e4",
      "title": "Bubble Gold"
    },
    "generator": "Sketchfab-12.12.0",
    "version": "2.0"
  },
  "bufferViews": [
    {
      "buffer": 0,
      "byteLength": 49824,
      "name": "floatBufferViews",
      "target": 34963
    },
    {
      "buffer": 0,
      "byteLength": 120832,
      "byteOffset": 49824,
      "byteStride": 8,
      "name": "floatBufferViews",
      "target": 34962
    },
    {
      "buffer": 0,
      "byteLength": 815616,
      "byteOffset": 170656,
      "byteStride": 12,
      "name": "floatBufferViews",
      "target": 34962
    },
    {
      "buffer": 0,
      "byteLength": 3960,
      "byteOffset": 986272,
      "name": "floatBufferViews"
    },
    {
      "buffer": 0,
      "byteLength": 1188,
      "byteOffset": 990232,
      "byteStride": 12,
      "name": "floatBufferViews"
    },
    {
      "buffer": 0,
      "byteLength": 1584,
      "byteOffset": 991420,
      "byteStride": 16,
      "name": "floatBufferViews"
    }
  ],
  "buffers": [
    {
      "byteLength": 993004,
      "uri": "scene.bin"
    }
  ],
  "extensionsRequired": [
    "KHR_materials_pbrSpecularGlossiness"
  ],
  "extensionsUsed": [
    "KHR_materials_pbrSpecularGlossiness"
  ],
  "images": [
    {
      "uri": "textures/Bubble_diffuse.jpeg"
    },
    {
      "uri": "textures/Bubble_specularGlossiness.png"
    },
    {
      "uri": "textures/Bubble_emissive.jpeg"
    }
  ],
  "materials": [
    {
      "alphaMode": "BLEND",
      "doubleSided": true,
      "emissiveFactor": [
        1.0,
        1.0,
        1.0
      ],
      "emissiveTexture": {
        "index": 2,
        "texCoord": 2
      },
      "extensions": {
        "KHR_materials_pbrSpecularGlossiness": {
          "diffuseFactor": [
            1.0,
            1.0,
            1.0,
            0.17195489727547442
          ],
          "diffuseTexture": {
            "index": 0
          },
          "glossinessFactor": 1.0,
          "specularFactor": [
            0.47464361670208355,
            0.47464361670208355,
            0.47464361670208355
          ],
          "specularGlossinessTexture": {
            "index": 1,
            "texCoord": 1
          }
        }
      },
      "name": "Bubble"
    }
  ],
  "meshes": [
    {
      "name": "mesh_0",
      "primitives": [
        {
          "attributes": {
            "NORMAL": 1,
            "POSITION": 0,
            "TEXCOORD_0": 2,
            "TEXCOORD_1": 3,
            "TEXCOORD_2": 4,
            "TEXCOORD_3": 5
          },
          "indices": 22,
          "material": 0,
          "mode": 4,
          "targets": [
            {
              "NORMAL": 7,
              "POSITION": 6
            },
            {
              "NORMAL": 9,
              "POSITION": 8
            },
            {
              "NORMAL": 11,
              "POSITION": 10
            },
            {
              "NORMAL": 13,
              "POSITION": 12
            },
            {
              "NORMAL": 15,
              "POSITION": 14
            },
            {
              "NORMAL": 17,
              "POSITION": 16
            },
            {
              "NORMAL": 19,
              "POSITION": 18
            },
            {
              "NORMAL": 21,
              "POSITION": 20
            }
          ]
        }
      ],
      "weights": [
        0.0,
        0.0,
        0.0,
        0.0,
        0.0,
        0.0,
        0.0,
        0.0
      ]
    }
  ],
  "nodes": [
    {
      "children": [
        1
      ],
      "matrix": [
        7.615899562835693,
        0.0,
        0.0,
        0.0,
        0.0,
        1.6910694095785702e-15,
        -7.615899562835693,
        0.0,
        0.0,
        7.615899562835693,
        1.6910694095785702e-15,
        0.0,
        0.0,
        0.0,
        0.0,
        1.0
      ],
      "name": "Sketchfab_model"
    },
    {
      "children": [
        2
      ],
      "name": "root"
    },
    {
      "children": [
        3
      ],
      "matrix": [
        1.0,
        0.0,
        0.0,
        0.0,
        0.0,
        2.220446049250313e-16,
        1.0,
        0.0,
        0.0,
        -1.0,
        2.220446049250313e-16,
        0.0,
        0.0,
        0.0,
        0.0,
        1.0
      ],
      "name": "GLTF_SceneRootNode"
    },
    {
      "children": [
        4
      ],
      "matrix": [
        0.11722558736801147,
        0.0,
        0.0,
        0.0,
        0.0,
        0.11722558736801147,
        0.0,
        0.0,
        0.0,
        0.0,
        0.11722558736801147,
        0.0,
        0.0,
        -0.02471865899860859,
        0.0,
        1.0
      ],
      "name": "bubble axes_1"
    },
    {
      "children": [
        5
      ],
      "name": "Mesh_Bubble _0",
      "rotation": [
        0.0,
        -0.8500962853431702,
        0.0,
        0.5266273021697998
      ],
      "scale": [
        0.417839914560318,
        0.4178399443626404,
        0.417839914560318
      ],
      "translation": [
        0.0,
        0.4903656542301178,
        0.0
      ]
    },
    {
      "mesh": 0,
      "name": "mesh_0"
    }
  ],
  "samplers": [
    {
      "magFilter": 9729,
      "minFilter": 9987,
      "wrapS": 10497,
      "wrapT": 10497
    }
  ],
  "scene": 0,
  "scenes": [
    {
      "name": "Sketchfab_Scene",
      "nodes": [
        0
      ]
    }
  ],
  "textures": [
    {
      "sampler": 0,
      "source": 0
    },
    {
      "sampler": 0,
      "source": 1
    },
    {
      "sampler": 0,
      "source": 2
    }
  ]
}
